<svg height="1024" viewBox="0 0 1024 1024" width="1024" xmlns="http://www.w3.org/2000/svg"><path d="m921.6 834.6-276.5 101.3v-617.4l279.6-97.3-3.1 613.4 66.6 23.6v-716.9l-520.2-128-455.7 119.8v729.1l599 148.5 376.8-152.6zm-845.8-623.7 500.7 115.7v614.4l-501.7-124.9zm162.8 149.5 142.3 34.8-1 98.3 110.6 26.6-8.2 346.1-64.5-16.4 2-122.9-24.6-6.1-1 120.8-37.9-9.2 1-121.9-27.6-7.2-1 122.9-39.9-10.2v-122.8l-23.6-6.1-1 122.9-39.9-10.2-1-122.9-28.7-7.2v122.9l-62.5-15.4-4.1-347.1 111.6 27.6zm509.9 28.7 81.9-27.6v99.3l63.5-22.5-3.1 362.5-37.8 13.3 1-130-14.3 5.1-1 128-22.5 8.2 1-129-16.4 6.1v130l-23.6 8.2v-130l-14.3 5.1-1 131.1-23.6 8.2v-131.1l-16.4 6.1-1 131.1-36.9 13.3v-366.6l65.5-22.5z"/></svg>